<svg version="1.1" xmlns="http://www.w3.org/2000/svg" viewBox="0 0 876.1666741163183 204.27455742306898" width="876.1666741163183" height="204.27455742306898" filter="invert(93%) hue-rotate(180deg)" class="excalidraw-svg">
  <!-- svg-source:excalidraw -->
  
  <defs>
    <style class="style-fonts">
      @font-face {
        font-family: "Virgil";
        src: url("https://excalidraw.com/Virgil.woff2");
      }
      @font-face {
        font-family: "Cascadia";
        src: url("https://excalidraw.com/Cascadia.woff2");
      }
      @font-face {
        font-family: "Assistant";
        src: url("https://excalidraw.com/Assistant-Regular.woff2");
      }
    </style>
    
  </defs>
  <g stroke-linecap="round" transform="translate(23.783486909766168 27.88031614439913) rotate(0 72.7398864537468 72.83778059331782)"><path d="M145.48 72.84 C145.48 75.56, 145.33 78.29, 145.02 80.99 C144.72 83.69, 144.26 86.4, 143.66 89.05 C143.05 91.7, 142.29 94.33, 141.4 96.89 C140.5 99.46, 139.45 101.99, 138.28 104.44 C137.1 106.89, 135.77 109.29, 134.33 111.59 C132.89 113.89, 131.3 116.13, 129.61 118.25 C127.92 120.38, 126.09 122.42, 124.17 124.34 C122.26 126.26, 120.21 128.09, 118.09 129.78 C115.97 131.48, 113.74 133.07, 111.44 134.51 C109.14 135.96, 106.75 137.28, 104.3 138.46 C101.85 139.64, 99.33 140.69, 96.76 141.59 C94.2 142.49, 91.57 143.24, 88.93 143.85 C86.28 144.45, 83.58 144.91, 80.88 145.22 C78.19 145.52, 75.45 145.68, 72.74 145.68 C70.03 145.68, 67.29 145.52, 64.6 145.22 C61.9 144.91, 59.2 144.45, 56.55 143.85 C53.91 143.24, 51.28 142.49, 48.72 141.59 C46.15 140.69, 43.63 139.64, 41.18 138.46 C38.73 137.28, 36.34 135.96, 34.04 134.51 C31.74 133.07, 29.51 131.48, 27.39 129.78 C25.26 128.09, 23.22 126.26, 21.31 124.34 C19.39 122.42, 17.56 120.38, 15.87 118.25 C14.18 116.13, 12.59 113.89, 11.15 111.59 C9.7 109.29, 8.38 106.89, 7.2 104.44 C6.03 101.99, 4.98 99.46, 4.08 96.89 C3.19 94.33, 2.43 91.7, 1.82 89.05 C1.22 86.4, 0.76 83.69, 0.46 80.99 C0.15 78.29, 0 75.56, 0 72.84 C0 70.12, 0.15 67.38, 0.46 64.68 C0.76 61.98, 1.22 59.28, 1.82 56.63 C2.43 53.98, 3.19 51.35, 4.08 48.78 C4.98 46.22, 6.03 43.68, 7.2 41.23 C8.38 38.79, 9.7 36.39, 11.15 34.09 C12.59 31.78, 14.18 29.55, 15.87 27.42 C17.56 25.3, 19.39 23.26, 21.31 21.33 C23.22 19.41, 25.26 17.59, 27.39 15.89 C29.51 14.2, 31.74 12.61, 34.04 11.16 C36.34 9.72, 38.73 8.39, 41.18 7.21 C43.63 6.03, 46.15 4.99, 48.72 4.09 C51.28 3.19, 53.91 2.43, 56.55 1.83 C59.2 1.22, 61.9 0.76, 64.6 0.46 C67.29 0.15, 70.03 0, 72.74 0 C75.45 0, 78.19 0.15, 80.88 0.46 C83.58 0.76, 86.28 1.22, 88.93 1.83 C91.57 2.43, 94.2 3.19, 96.76 4.09 C99.33 4.99, 101.85 6.03, 104.3 7.21 C106.75 8.39, 109.14 9.72, 111.44 11.16 C113.74 12.61, 115.97 14.2, 118.09 15.89 C120.21 17.59, 122.26 19.41, 124.17 21.33 C126.09 23.26, 127.92 25.3, 129.61 27.42 C131.3 29.55, 132.89 31.78, 134.33 34.09 C135.77 36.39, 137.1 38.79, 138.28 41.23 C139.45 43.68, 140.5 46.22, 141.4 48.78 C142.29 51.35, 143.05 53.98, 143.66 56.63 C144.26 59.28, 144.72 61.98, 145.02 64.68 C145.33 67.38, 145.4 71.48, 145.48 72.84 C145.56 74.2, 145.56 71.48, 145.48 72.84" stroke="#367cbe" stroke-width="1" fill="none"/></g><g stroke-linecap="round"><g transform="translate(110.33365945476635 141.8438575064621) rotate(0 13.687667395185855 -15.901849901865646)"><path d="M0 0 C0.84 0.91, 2.99 5.1, 5.03 5.43 C7.08 5.77, 11.81 4.03, 12.28 2.01 C12.75 0, 8.05 -3.89, 7.85 -6.64 C7.65 -9.39, 8.09 -10.77, 11.07 -14.49 C14.06 -18.22, 23.05 -25.19, 25.77 -28.99 C28.48 -32.78, 27.11 -35.86, 27.38 -37.24 M0 0 C0.84 0.91, 2.99 5.1, 5.03 5.43 C7.08 5.77, 11.81 4.03, 12.28 2.01 C12.75 0, 8.05 -3.89, 7.85 -6.64 C7.65 -9.39, 8.09 -10.77, 11.07 -14.49 C14.06 -18.22, 23.05 -25.19, 25.77 -28.99 C28.48 -32.78, 27.11 -35.86, 27.38 -37.24" stroke="#367cbe" stroke-width="1" fill="none"/></g></g><mask/><g stroke-linecap="round"><g transform="translate(128.10486524587805 131.40979015349606) rotate(92.4052671982985 -13.687667395185855 -15.90184990186565)"><path d="M0 0 C-0.84 0.91, -3.25 5.21, -5.03 5.43 C-6.81 5.66, -10.05 3.45, -10.7 1.34 C-11.34 -0.76, -8.58 -4.47, -8.88 -7.2 C-9.18 -9.93, -9.69 -11.41, -12.5 -15.04 C-15.32 -18.67, -23.29 -25.29, -25.77 -28.99 C-28.24 -32.69, -27.11 -35.86, -27.38 -37.24 M0 0 C-0.84 0.91, -3.25 5.21, -5.03 5.43 C-6.81 5.66, -10.05 3.45, -10.7 1.34 C-11.34 -0.76, -8.58 -4.47, -8.88 -7.2 C-9.18 -9.93, -9.69 -11.41, -12.5 -15.04 C-15.32 -18.67, -23.29 -25.29, -25.77 -28.99 C-28.24 -32.69, -27.11 -35.86, -27.38 -37.24" stroke="#367cbe" stroke-width="1" fill="none"/></g></g><mask/><g stroke-linecap="round"><g transform="translate(109.72980092210537 126.54587765512059) rotate(0 -3.8245026414108168 7.045123714434318)"><path d="M0 0 C0.67 0.7, 4.76 1.88, 4.03 4.23 C3.29 6.58, -1.81 13.52, -4.43 14.09 C-7.05 14.66, -12.41 10, -11.67 7.65 C-10.94 5.3, -1.95 1.27, 0 0 M0 0 C0.67 0.7, 4.76 1.88, 4.03 4.23 C3.29 6.58, -1.81 13.52, -4.43 14.09 C-7.05 14.66, -12.41 10, -11.67 7.65 C-10.94 5.3, -1.95 1.27, 0 0" stroke="#367cbe" stroke-width="1" fill="none"/></g></g><mask/><g stroke-linecap="round"><g transform="translate(144.55283178201876 93.6518642854666) rotate(0 12.077354939030272 -32.50821678232001)"><path d="M0 0 C4.03 -7.15, 20.77 -32.07, 24.15 -42.87 C27.54 -53.68, 24.26 -61.12, 20.33 -64.82 C16.41 -68.51, 3.89 -64.98, 0.6 -65.02 M0 0 C4.03 -7.15, 20.77 -32.07, 24.15 -42.87 C27.54 -53.68, 24.26 -61.12, 20.33 -64.82 C16.41 -68.51, 3.89 -64.98, 0.6 -65.02" stroke="#367cbe" stroke-width="1" fill="none"/></g></g><mask/><g stroke-linecap="round"><g transform="translate(90.40603609108729 145.85286287907775) rotate(0 -32.81015372722595 13.28509504007858)"><path d="M0 0 C-7.51 4.33, -34.76 21.54, -45.09 25.97 C-55.42 30.39, -58.58 27.95, -62 26.57 C-65.42 25.19, -65.22 21.61, -65.62 17.71 C-66.02 13.82, -64.61 5.64, -64.41 3.22 M0 0 C-7.51 4.33, -34.76 21.54, -45.09 25.97 C-55.42 30.39, -58.58 27.95, -62 26.57 C-65.42 25.19, -65.22 21.61, -65.62 17.71 C-66.02 13.82, -64.61 5.64, -64.41 3.22" stroke="#367cbe" stroke-width="1" fill="none"/></g></g><mask/><g stroke-linecap="round"><g transform="translate(26.451324907870458 18.194252375821137) rotate(0 -6.014837223896706 5.653947908254231)"><path d="M0 0 C-2 1.88, -10.02 9.42, -12.03 11.31 M0 0 C-2 1.88, -10.02 9.42, -12.03 11.31" stroke="#367cbe" stroke-width="1" fill="none"/></g></g><mask/><g stroke-linecap="round"><g transform="translate(18.437196899206697 18.751733047073557) rotate(0 3.3683125165474337 4.691574870222077)"><path d="M0 0 C1.12 1.56, 5.61 7.82, 6.74 9.38 M0 0 C1.12 1.56, 5.61 7.82, 6.74 9.38" stroke="#367cbe" stroke-width="1" fill="none"/></g></g><mask/><g stroke-linecap="round"><g transform="translate(172.8982094665435 170.2053499472452) rotate(0 -6.014837223896706 5.65394790825423)"><path d="M0 0 C-2 1.88, -10.02 9.42, -12.03 11.31 M0 0 C-2 1.88, -10.02 9.42, -12.03 11.31" stroke="#367cbe" stroke-width="1" fill="none"/></g></g><mask/><g stroke-linecap="round"><g transform="translate(164.88408145787974 170.76283061849765) rotate(0 3.3683125165474337 4.691574870222075)"><path d="M0 0 C1.12 1.56, 5.61 7.82, 6.74 9.38 M0 0 C1.12 1.56, 5.61 7.82, 6.74 9.38" stroke="#367cbe" stroke-width="1" fill="none"/></g></g><mask/><g stroke-linecap="round"><g transform="translate(185.9648337837682 65.35058171791927) rotate(0 -2.405934889558665 1.804451167169013)"><path d="M0 0 C-0.8 0.6, -4.01 3.01, -4.81 3.61 M0 0 C-0.8 0.6, -4.01 3.01, -4.81 3.61" stroke="#367cbe" stroke-width="1" fill="none"/></g></g><mask/><g stroke-linecap="round"><g transform="translate(14.81186977911733 57.73775244061373) rotate(0 -2.405934889558665 1.804451167169013)"><path d="M0 0 C-0.8 0.6, -4.01 3.01, -4.81 3.61 M0 0 C-0.8 0.6, -4.01 3.01, -4.81 3.61" stroke="#367cbe" stroke-width="1" fill="none"/></g></g><mask/><g stroke-linecap="round"><g transform="translate(71.29120599616863 190.66565508873094) rotate(0 -2.405934889558665 1.804451167169013)"><path d="M0 0 C-0.8 0.6, -4.01 3.01, -4.81 3.61 M0 0 C-0.8 0.6, -4.01 3.01, -4.81 3.61" stroke="#367cbe" stroke-width="1" fill="none"/></g></g><mask/><g stroke-linecap="round"><g transform="translate(96.25278047534005 10) rotate(0 -1.6841562582737026 1.2029674447793326)"><path d="M0 0 C-0.56 0.4, -2.81 2, -3.37 2.41 M0 0 C-0.56 0.4, -2.81 2, -3.37 2.41" stroke="#367cbe" stroke-width="1" fill="none"/></g></g><mask/><g stroke-linecap="round"><g transform="translate(320.0666572419036 70.61303772576674) rotate(0 -42.45605635232012 31.26035489593729)"><path d="M0 0 C-1.79 -1.79, -6.49 -8.09, -10.76 -10.76 C-15.02 -13.43, -20.16 -14.83, -25.59 -15.99 C-31.02 -17.16, -37.37 -18.37, -43.33 -17.74 C-49.29 -17.11, -55.88 -15.56, -61.36 -12.21 C-66.83 -8.87, -72.41 -2.37, -76.19 2.33 C-79.97 7.03, -82.59 10.52, -84.04 15.99 C-85.49 21.47, -85.45 28.98, -84.91 35.19 C-84.38 41.39, -83.41 47.5, -80.84 53.22 C-78.27 58.93, -73.43 65.55, -69.5 69.5 C-65.57 73.45, -61.54 75.12, -57.29 76.92 C-53.03 78.71, -46.2 79.7, -43.98 80.26 M0 0 C-1.79 -1.79, -6.49 -8.09, -10.76 -10.76 C-15.02 -13.43, -20.16 -14.83, -25.59 -15.99 C-31.02 -17.16, -37.37 -18.37, -43.33 -17.74 C-49.29 -17.11, -55.88 -15.56, -61.36 -12.21 C-66.83 -8.87, -72.41 -2.37, -76.19 2.33 C-79.97 7.03, -82.59 10.52, -84.04 15.99 C-85.49 21.47, -85.45 28.98, -84.91 35.19 C-84.38 41.39, -83.41 47.5, -80.84 53.22 C-78.27 58.93, -73.43 65.55, -69.5 69.5 C-65.57 73.45, -61.54 75.12, -57.29 76.92 C-53.03 78.71, -46.2 79.7, -43.98 80.26" stroke="#367cbe" stroke-width="1" fill="none"/></g></g><mask/><g stroke-linecap="round"><g transform="translate(320.0666572419036 133.42472325061433) rotate(0 -15.993717351441575 8.433049857829374)"><path d="M0 0 C-1.36 1.3, -4.89 5.36, -8.14 7.78 C-11.39 10.2, -15.51 13.03, -19.48 14.54 C-23.46 16.05, -29.9 16.48, -31.99 16.87 M0 0 C-1.36 1.3, -4.89 5.36, -8.14 7.78 C-11.39 10.2, -15.51 13.03, -19.48 14.54 C-23.46 16.05, -29.9 16.48, -31.99 16.87" stroke="#367cbe" stroke-width="1" fill="none"/></g></g><mask/><g stroke-linecap="round"><g transform="translate(362.813492925038 145.92890005224356) rotate(0 25.008375789145646 -44.34621351939752)"><path d="M0 0 C2.62 0.92, 9.74 4.75, 15.7 5.53 C21.66 6.3, 29.53 6.3, 35.77 4.65 C42 3.01, 48.03 -0.29, 53.12 -4.36 C58.21 -8.43, 63.33 -14.83, 66.3 -19.77 C69.27 -24.72, 70.08 -28.69, 70.95 -34.02 C71.83 -39.35, 72.55 -45.51, 71.54 -51.76 C70.52 -58.01, 68.14 -66.11, 64.85 -71.54 C61.55 -76.96, 56.75 -80.94, 51.76 -84.33 C46.77 -87.72, 41 -90.24, 34.9 -91.89 C28.79 -93.54, 20.99 -94.7, 15.12 -94.22 C9.26 -93.73, 3.83 -90.87, -0.29 -88.98 C-4.41 -87.09, -6.06 -86.12, -9.6 -82.88 C-13.13 -79.63, -19.53 -71.73, -21.52 -69.5 M0 0 C2.62 0.92, 9.74 4.75, 15.7 5.53 C21.66 6.3, 29.53 6.3, 35.77 4.65 C42 3.01, 48.03 -0.29, 53.12 -4.36 C58.21 -8.43, 63.33 -14.83, 66.3 -19.77 C69.27 -24.72, 70.08 -28.69, 70.95 -34.02 C71.83 -39.35, 72.55 -45.51, 71.54 -51.76 C70.52 -58.01, 68.14 -66.11, 64.85 -71.54 C61.55 -76.96, 56.75 -80.94, 51.76 -84.33 C46.77 -87.72, 41 -90.24, 34.9 -91.89 C28.79 -93.54, 20.99 -94.7, 15.12 -94.22 C9.26 -93.73, 3.83 -90.87, -0.29 -88.98 C-4.41 -87.09, -6.06 -86.12, -9.6 -82.88 C-13.13 -79.63, -19.53 -71.73, -21.52 -69.5" stroke="#367cbe" stroke-width="1" fill="none"/></g></g><mask/><g stroke-linecap="round"><g transform="translate(456.23113532393825 52.947216630852225) rotate(0 -0.4361096221060521 48.74445999198722)"><path d="M0 0 C-0.15 16.25, -0.73 81.24, -0.87 97.49 M0 0 C-0.15 16.25, -0.73 81.24, -0.87 97.49" stroke="#367cbe" stroke-width="1" fill="none"/></g></g><mask/><g stroke-linecap="round"><g transform="translate(454.99551043189155 150.8724259996761) rotate(0 9.450821887453671 0.14540075835073196)"><path d="M0 0 C3.15 0.05, 15.75 0.24, 18.9 0.29 M0 0 C3.15 0.05, 15.75 0.24, 18.9 0.29" stroke="#367cbe" stroke-width="1" fill="none"/></g></g><mask/><g stroke-linecap="round"><g transform="translate(455.86788170316515 52.58376522213304) rotate(0 25.087636921756825 47.54496087221609)"><path d="M0 0 C2.71 0.19, 11.39 0.39, 16.28 1.16 C21.18 1.94, 25.3 2.62, 29.37 4.65 C33.44 6.69, 37.66 9.35, 40.71 13.38 C43.76 17.4, 46.11 23.12, 47.69 28.79 C49.27 34.46, 50.32 40.91, 50.18 47.4 C50.03 53.89, 48.73 61.62, 46.82 67.76 C44.91 73.89, 42.17 79.67, 38.73 84.22 C35.29 88.78, 28.26 93.28, 26.17 95.09 M0 0 C2.71 0.19, 11.39 0.39, 16.28 1.16 C21.18 1.94, 25.3 2.62, 29.37 4.65 C33.44 6.69, 37.66 9.35, 40.71 13.38 C43.76 17.4, 46.11 23.12, 47.69 28.79 C49.27 34.46, 50.32 40.91, 50.18 47.4 C50.03 53.89, 48.73 61.62, 46.82 67.76 C44.91 73.89, 42.17 79.67, 38.73 84.22 C35.29 88.78, 28.26 93.28, 26.17 95.09" stroke="#367cbe" stroke-width="1" fill="none"/></g></g><mask/><g stroke-linecap="round"><g transform="translate(558.8092447255519 52.29296925190337) rotate(0 -15.266730199103307 -0.4361911821085869)"><path d="M0 0 C-5.09 -0.15, -25.44 -0.73, -30.53 -0.87 M0 0 C-5.09 -0.15, -25.44 -0.73, -30.53 -0.87" stroke="#367cbe" stroke-width="1" fill="none"/></g></g><mask/><g stroke-linecap="round"><g transform="translate(528.2758065132325 51.12979091745653) rotate(0 -0.2908015167014497 31.405848308895607)"><path d="M0 0 C-0.1 10.47, -0.48 52.34, -0.58 62.81 M0 0 C-0.1 10.47, -0.48 52.34, -0.58 62.81" stroke="#367cbe" stroke-width="1" fill="none"/></g></g><mask/><g stroke-linecap="round"><g transform="translate(536.8648327861691 121.34098046824758) rotate(0 -4.9235251441956365 -0.1324573173491359)"><path d="M0 0 C-1.64 -0.04, -8.21 -0.22, -9.85 -0.26 M0 0 C-1.64 -0.04, -8.21 -0.22, -9.85 -0.26" stroke="#367cbe" stroke-width="1" fill="none"/></g></g><mask/><g stroke-linecap="round"><g transform="translate(560.5540316398735 151.45401794013543) rotate(0 -16.866110808602357 -0.4361911821086011)"><path d="M0 0 C-5.62 -0.15, -28.11 -0.73, -33.73 -0.87 M0 0 C-5.62 -0.15, -28.11 -0.73, -33.73 -0.87" stroke="#367cbe" stroke-width="1" fill="none"/></g></g><mask/><g stroke-linecap="round"><g transform="translate(527.1184168645992 121.51656515595984) rotate(0 -0.04060746716434238 14.349429647078601)"><path d="M0 0 C-0.01 4.78, -0.07 23.92, -0.08 28.7 M0 0 C-0.01 4.78, -0.07 23.92, -0.08 28.7" stroke="#367cbe" stroke-width="1" fill="none"/></g></g><mask/><g stroke-linecap="round"><g transform="translate(581.7820431766181 52.00217882814552) rotate(0 10.032436013800208 35.33157726758063)"><path d="M0 0 C3.34 11.78, 16.72 58.89, 20.06 70.66 M0 0 C3.34 11.78, 16.72 58.89, 20.06 70.66" stroke="#367cbe" stroke-width="1" fill="none"/></g></g><mask/><g stroke-linecap="round"><g transform="translate(636.4514859068097 51.71138840438766) rotate(0 -14.830533470522909 49.43512358576528)"><path d="M0 0 C-4.94 16.48, -24.72 82.39, -29.66 98.87 M0 0 C-4.94 16.48, -24.72 82.39, -29.66 98.87" stroke="#367cbe" stroke-width="1" fill="none"/></g></g><mask/><g stroke-linecap="round"><g transform="translate(688.8545120981958 52.154996101363594) rotate(0 -15.266730199103307 -0.4361911821085869)"><path d="M0 0 C-5.09 -0.15, -25.44 -0.73, -30.53 -0.87 M0 0 C-5.09 -0.15, -25.44 -0.73, -30.53 -0.87" stroke="#367cbe" stroke-width="1" fill="none"/></g></g><mask/><g stroke-linecap="round"><g transform="translate(658.3210738858763 50.99181776691677) rotate(0 -0.2908015167014497 31.405848308895607)"><path d="M0 0 C-0.1 10.47, -0.48 52.34, -0.58 62.81 M0 0 C-0.1 10.47, -0.48 52.34, -0.58 62.81" stroke="#367cbe" stroke-width="1" fill="none"/></g></g><mask/><g stroke-linecap="round"><g transform="translate(664.9891324699989 120.93809861527063) rotate(0 -4.040798411729426 -0.000002966130534076683)"><path d="M0 0 C-1.35 0, -6.73 0, -8.08 0 M0 0 C-1.35 0, -6.73 0, -8.08 0" stroke="#367cbe" stroke-width="1" fill="none"/></g></g><mask/><g stroke-linecap="round"><g transform="translate(690.5992990125175 151.31604478959568) rotate(0 -16.866110808602357 -0.4361911821086011)"><path d="M0 0 C-5.62 -0.15, -28.11 -0.73, -33.73 -0.87 M0 0 C-5.62 -0.15, -28.11 -0.73, -33.73 -0.87" stroke="#367cbe" stroke-width="1" fill="none"/></g></g><mask/><g stroke-linecap="round"><g transform="translate(656.8670773953125 121.36417633184837) rotate(0 0.017085988725810353 14.421535810409935)"><path d="M0 0 C0.01 4.81, 0.03 24.04, 0.03 28.84 M0 0 C0.01 4.81, 0.03 24.04, 0.03 28.84" stroke="#367cbe" stroke-width="1" fill="none"/></g></g><mask/><g stroke-linecap="round"><g transform="translate(864.4218872019967 52.30038576677076) rotate(0 -15.266730199103307 -0.4361911821085869)"><path d="M0 0 C-5.09 -0.15, -25.44 -0.73, -30.53 -0.87 M0 0 C-5.09 -0.15, -25.44 -0.73, -30.53 -0.87" stroke="#367cbe" stroke-width="1" fill="none"/></g></g><mask/><g stroke-linecap="round"><g transform="translate(833.8884489896773 51.137207432323905) rotate(0 -0.2908015167014639 31.405848308895607)"><path d="M0 0 C-0.1 10.47, -0.48 52.34, -0.58 62.81 M0 0 C-0.1 10.47, -0.48 52.34, -0.58 62.81" stroke="#367cbe" stroke-width="1" fill="none"/></g></g><mask/><g stroke-linecap="round"><g transform="translate(841.1915440828318 121.62345642660924) rotate(0 -4.436067845925095 -0.0810065884678437)"><path d="M0 0 C-1.48 -0.03, -7.39 -0.14, -8.87 -0.16 M0 0 C-1.48 -0.03, -7.39 -0.14, -8.87 -0.16" stroke="#367cbe" stroke-width="1" fill="none"/></g></g><mask/><g stroke-linecap="round"><g transform="translate(866.1666741163183 151.4614344550028) rotate(0 -16.86611080860237 -0.4361911821086011)"><path d="M0 0 C-5.62 -0.15, -28.11 -0.73, -33.73 -0.87 M0 0 C-5.62 -0.15, -28.11 -0.73, -33.73 -0.87" stroke="#367cbe" stroke-width="1" fill="none"/></g></g><mask/><g stroke-linecap="round"><g transform="translate(832.4344524991136 121.50956599725549) rotate(0 0.08181849938361552 14.499289956220181)"><path d="M0 0 C0.03 4.83, 0.14 24.17, 0.16 29 M0 0 C0.03 4.83, 0.14 24.17, 0.16 29" stroke="#367cbe" stroke-width="1" fill="none"/></g></g><mask/><g stroke-linecap="round"><g transform="translate(710.6041754453115 90.67788756748004) rotate(0 -0.1773845205991904 -20.0070998189331)"><path d="M0 0 C-0.06 -6.67, -0.3 -33.35, -0.35 -40.01 M0 0 C-0.06 -6.67, -0.3 -33.35, -0.35 -40.01" stroke="#367cbe" stroke-width="1" fill="none"/></g></g><mask/><g stroke-linecap="round"><g transform="translate(710.9464928436608 50.54820452346901) rotate(0 20.449519595702085 36.93094678413606)"><path d="M0 0 C2.56 0.29, 10.62 0.44, 15.36 1.74 C20.1 3.05, 24.87 5.19, 28.45 7.85 C32.02 10.52, 34.72 13.96, 36.81 17.74 C38.89 21.52, 40.21 25.4, 40.95 30.53 C41.69 35.67, 42.36 43.18, 41.24 48.56 C40.13 53.94, 38.09 58.64, 34.26 62.81 C30.43 66.98, 24.04 71.73, 18.27 73.57 C12.5 75.41, 2.76 73.81, -0.34 73.86 M0 0 C2.56 0.29, 10.62 0.44, 15.36 1.74 C20.1 3.05, 24.87 5.19, 28.45 7.85 C32.02 10.52, 34.72 13.96, 36.81 17.74 C38.89 21.52, 40.21 25.4, 40.95 30.53 C41.69 35.67, 42.36 43.18, 41.24 48.56 C40.13 53.94, 38.09 58.64, 34.26 62.81 C30.43 66.98, 24.04 71.73, 18.27 73.57 C12.5 75.41, 2.76 73.81, -0.34 73.86" stroke="#367cbe" stroke-width="1" fill="none"/></g></g><mask/><g stroke-linecap="round"><g transform="translate(735.3575911770423 121.49219209538106) rotate(0 9.142116280524306 15.707900074715443)"><path d="M0 0 C3.05 5.24, 15.24 26.18, 18.28 31.42 M0 0 C3.05 5.24, 15.24 26.18, 18.28 31.42" stroke="#367cbe" stroke-width="1" fill="none"/></g></g><mask/><g stroke-linecap="round"><g transform="translate(785.1487789538207 151.32761083753238) rotate(0 11.499046550181646 -5.0446943828982995)"><path d="M0 0 C1.78 -0.03, 7.57 0.3, 10.66 -0.16 C13.74 -0.63, 16.45 -1.13, 18.51 -2.78 C20.57 -4.44, 22.25 -8.87, 23 -10.09 M0 0 C1.78 -0.03, 7.57 0.3, 10.66 -0.16 C13.74 -0.63, 16.45 -1.13, 18.51 -2.78 C20.57 -4.44, 22.25 -8.87, 23 -10.09" stroke="#367cbe" stroke-width="1" fill="none"/></g></g><mask/><g stroke-linecap="round"><g transform="translate(806.8572699777187 58.69045841106873) rotate(0 -14.248952623007227 35.33157726758062)"><path d="M0 0 C-1.5 -0.82, -5.72 -4.07, -9.01 -4.94 C-12.31 -5.82, -16.62 -6.25, -19.77 -5.23 C-22.92 -4.22, -25.88 -1.45, -27.92 1.16 C-29.95 3.78, -31.7 6.98, -31.99 10.47 C-32.28 13.96, -31.38 18.46, -29.66 22.1 C-27.95 25.74, -24.45 29.54, -21.69 32.28 C-18.94 35.02, -16.03 36.35, -13.15 38.53 C-10.28 40.71, -6.92 42.7, -4.42 45.35 C-1.91 48.01, 0.55 50.89, 1.87 54.46 C3.19 58.02, 3.36 63.15, 3.49 66.73 C3.61 70.3, 2.76 74.37, 2.62 75.9 M0 0 C-1.5 -0.82, -5.72 -4.07, -9.01 -4.94 C-12.31 -5.82, -16.62 -6.25, -19.77 -5.23 C-22.92 -4.22, -25.88 -1.45, -27.92 1.16 C-29.95 3.78, -31.7 6.98, -31.99 10.47 C-32.28 13.96, -31.38 18.46, -29.66 22.1 C-27.95 25.74, -24.45 29.54, -21.69 32.28 C-18.94 35.02, -16.03 36.35, -13.15 38.53 C-10.28 40.71, -6.92 42.7, -4.42 45.35 C-1.91 48.01, 0.55 50.89, 1.87 54.46 C3.19 58.02, 3.36 63.15, 3.49 66.73 C3.61 70.3, 2.76 74.37, 2.62 75.9" stroke="#367cbe" stroke-width="1" fill="none"/></g></g><mask/></svg>